<svg xmlns="http://www.w3.org/2000/svg" height="48" viewBox="0 -960 960 960" width="48"><path d="M44-421q-23-39-33.5-78.205Q0-538.411 0-576q0-110 77-187t187-77q59 0 115.5 23.5T480-751q44-42 100.5-65.5T696-840q110 0 187 77t77 187q0 36.839-10.5 75.92Q939-461 917-422q-13-14-29.5-23T853-460q17-30 25.5-59.075Q887-548.149 887-576q0-79.489-55.755-135.245Q775.489-767 696-767q-38 0-98.5 25T480-649q-57-68-117-93t-99-25q-79.489 0-135.245 55.755Q73-655.489 73-576q0 28.194 8.5 57.597Q90-489 107-459q-18 5-34.5 15T44-421ZM-8-62v-61q0-42.629 43.95-68.814Q79.9-218 150-218q9 0 16 .5t15 1.5q-9 18-14 38.056-5 20.055-5 42.944v73H-8Zm240 0v-73q0-68.586 68.395-110.793Q368.79-288 479.876-288 592-288 660-245.793T728-135v73H232Zm566 0v-73.143q0-22.227-4.5-42.477Q789-197.87 780-216q8-1 15.057-1.5T810-218q71.2 0 114.6 26.186Q968-165.629 968-123v61H798ZM150.044-246Q119-246 97-267.943q-22-21.943-22-52.969Q75-352 96.943-374t52.969-22Q181-396 203-374.075t22 53.031Q225-290 203.075-268q-21.925 22-53.031 22Zm660 0Q779-246 757-267.943q-22-21.943-22-52.969Q735-352 756.943-374t52.969-22Q841-396 863-374.075t22 53.031Q885-290 863.075-268q-21.925 22-53.031 22Zm-329.573-71q-53.138 0-90.804-37.667Q352-392.333 352-445.471q0-53.4 37.667-90.464Q427.333-573 480.471-573q53.4 0 90.464 37.065Q608-498.871 608-445.471q0 53.138-37.065 90.804Q533.871-317 480.471-317Z"/></svg>